<svg id="visual" viewBox="0 0 900 600" width="900" height="600" xmlns="http://www.w3.org/2000/svg" xmlns:xlink="http://www.w3.org/1999/xlink" version="1.1"><rect x="0" y="0" width="900" height="600" fill="#001220"></rect><path d="M0 374L21.5 373.7C43 373.3 86 372.7 128.8 383C171.7 393.3 214.3 414.7 257.2 424C300 433.3 343 430.7 385.8 421.8C428.7 413 471.3 398 514.2 390.7C557 383.3 600 383.7 642.8 393.8C685.7 404 728.3 424 771.2 429.3C814 434.7 857 425.3 878.5 420.7L900 416L900 601L878.5 601C857 601 814 601 771.2 601C728.3 601 685.7 601 642.8 601C600 601 557 601 514.2 601C471.3 601 428.7 601 385.8 601C343 601 300 601 257.2 601C214.3 601 171.7 601 128.8 601C86 601 43 601 21.5 601L0 601Z" fill="#fa7268"></path><path d="M0 478L21.5 469.8C43 461.7 86 445.3 128.8 441.8C171.7 438.3 214.3 447.7 257.2 451.2C300 454.7 343 452.3 385.8 447.7C428.7 443 471.3 436 514.2 433.5C557 431 600 433 642.8 440.2C685.7 447.3 728.3 459.7 771.2 460.7C814 461.7 857 451.3 878.5 446.2L900 441L900 601L878.5 601C857 601 814 601 771.2 601C728.3 601 685.7 601 642.8 601C600 601 557 601 514.2 601C471.3 601 428.7 601 385.8 601C343 601 300 601 257.2 601C214.3 601 171.7 601 128.8 601C86 601 43 601 21.5 601L0 601Z" fill="#ef5f67"></path><path d="M0 442L21.5 449.5C43 457 86 472 128.8 476.7C171.7 481.3 214.3 475.7 257.2 469.7C300 463.7 343 457.3 385.8 464.2C428.7 471 471.3 491 514.2 501C557 511 600 511 642.8 504.2C685.7 497.3 728.3 483.7 771.2 476.7C814 469.7 857 469.3 878.5 469.2L900 469L900 601L878.5 601C857 601 814 601 771.2 601C728.3 601 685.7 601 642.8 601C600 601 557 601 514.2 601C471.3 601 428.7 601 385.8 601C343 601 300 601 257.2 601C214.3 601 171.7 601 128.8 601C86 601 43 601 21.5 601L0 601Z" fill="#e34c67"></path><path d="M0 500L21.5 497.5C43 495 86 490 128.8 487.7C171.7 485.3 214.3 485.7 257.2 493.8C300 502 343 518 385.8 518.8C428.7 519.7 471.3 505.3 514.2 506.5C557 507.7 600 524.3 642.8 529.5C685.7 534.7 728.3 528.3 771.2 521.7C814 515 857 508 878.5 504.5L900 501L900 601L878.5 601C857 601 814 601 771.2 601C728.3 601 685.7 601 642.8 601C600 601 557 601 514.2 601C471.3 601 428.7 601 385.8 601C343 601 300 601 257.2 601C214.3 601 171.7 601 128.8 601C86 601 43 601 21.5 601L0 601Z" fill="#d53867"></path><path d="M0 542L21.5 546C43 550 86 558 128.8 555C171.7 552 214.3 538 257.2 531.5C300 525 343 526 385.8 532.7C428.7 539.3 471.3 551.7 514.2 551.5C557 551.3 600 538.7 642.8 532.2C685.7 525.7 728.3 525.3 771.2 529.3C814 533.3 857 541.7 878.5 545.8L900 550L900 601L878.5 601C857 601 814 601 771.2 601C728.3 601 685.7 601 642.8 601C600 601 557 601 514.2 601C471.3 601 428.7 601 385.8 601C343 601 300 601 257.2 601C214.3 601 171.7 601 128.8 601C86 601 43 601 21.5 601L0 601Z" fill="#c62368"></path></svg>